<svg height="1000" width="1000" version="1.1" xmlns="http://www.w3.org/2000/svg" viewBox="-100 -100 1000 1000">
	 <path d="M0.0 0.0 L0.0 300.0 L200.0 300.0 L200.0 0.0 L200.0 -60.0 L184.6153846153846 -60.0 L184.6153846153846 0.0 L169.23076923076923 0.0 L169.23076923076923 -60.0 L153.84615384615384 -60.0 L153.84615384615384 0.0 L138.46153846153845 0.0 L138.46153846153845 -60.0 L123.07692307692307 -60.0 L123.07692307692307 0.0 L107.69230769230768 0.0 L107.69230769230768 -60.0 L92.30769230769229 -60.0 L92.30769230769229 0.0 L76.9230769230769 0.0 L76.9230769230769 -60.0 L61.53846153846152 -60.0 L61.53846153846152 0.0 L46.15384615384613 0.0 L46.15384615384613 -60.0 L30.769230769230745 -60.0 L30.769230769230745 0.0 L15.38461538461536 0.0 L15.38461538461536 -60.0 L-2.4868995751603507E-14 -60.0 L-2.4868995751603507E-14 0.0 Z" fill="none" stroke="blue" stroke-width="1"/>

</svg>
