<svg height="1000" width="1000" version="1.1" xmlns="http://www.w3.org/2000/svg" viewBox="-100 -100 1000 1000">
	 <path d="M0.0 0.0 L0.0 300.0 L700.0 300.0 L700.0 0.0 Z" fill="none" stroke="blue" stroke-width="1"/>
	 <path d="M87.4999475257257 78.57138265626841 L87.50005247444295 49.999954085032584 L112.5000524742743 50.000045915160165 L112.49994752555705 78.571474486396 Z" fill="none" stroke="green" stroke-width="1"/>
	 <path d="M87.4999475257257 135.71423979912555 L87.50005247444294 107.14281122788972 L112.5000524742743 107.14290305801731 L112.49994752555705 135.71433162925314 Z" fill="none" stroke="green" stroke-width="1"/>
	 <path d="M87.4999475257257 192.85709694198272 L87.50005247444295 164.28566837074686 L112.5000524742743 164.28576020087445 L112.49994752555705 192.8571887721103 Z" fill="none" stroke="green" stroke-width="1"/>
	 <path d="M87.4999475257257 249.99995408483986 L87.50005247444295 221.428525513604 L112.5000524742743 221.4286173437316 L112.49994752555705 250.00004591496744 Z" fill="none" stroke="green" stroke-width="1"/>
	 <path d="M569.9999717447785 65.38450518841043 L570.0000282556263 49.99988980389875 L630.0000282552215 50.00011019620495 L629.9999717443737 65.38472558071663 Z" fill="none" stroke="green" stroke-width="1"/>
	 <path d="M569.9999717447785 96.15373595764119 L570.0000282556263 80.76912057312951 L630.0000282552215 80.76934096543572 L629.9999717443737 96.15395634994739 Z" fill="none" stroke="green" stroke-width="1"/>
	 <path d="M569.9999717447785 126.92296672687196 L570.0000282556263 111.53835134236029 L630.0000282552215 111.53857173466649 L629.9999717443737 126.92318711917817 Z" fill="none" stroke="green" stroke-width="1"/>
	 <path d="M569.9999717447785 157.69219749610275 L570.0000282556263 142.30758211159105 L630.0000282552215 142.30780250389725 L629.9999717443737 157.69241788840895 Z" fill="none" stroke="green" stroke-width="1"/>
	 <path d="M569.9999717447785 188.46142826533352 L570.0000282556263 173.07681288082182 L630.0000282552215 173.07703327312802 L629.9999717443737 188.46164865763973 Z" fill="none" stroke="green" stroke-width="1"/>
	 <path d="M569.9999717447785 219.2306590345643 L570.0000282556263 203.8460436500526 L630.0000282552215 203.8462640423588 L629.9999717443737 219.2308794268705 Z" fill="none" stroke="green" stroke-width="1"/>
	 <path d="M569.9999717447785 249.99988980379507 L570.0000282556263 234.61527441928337 L630.0000282552215 234.61549481158957 L629.9999717443737 250.00011019610128 Z" fill="none" stroke="green" stroke-width="1"/>

</svg>
