<svg height="1000" width="1000" version="1.1" xmlns="http://www.w3.org/2000/svg" viewBox="-100 -100 1000 1000">
	 <path d="M0.0 0.0 L0.0 300.0 L700.0 300.0 L700.0 0.0 Z" fill="none" stroke="blue" stroke-width="1"/>
	 <path d="M62.49995918686294 72.22208447695589 L62.50004081364301 49.999862254883574 L137.50004081313705 50.00013774526633 L137.499959186357 72.22235996733863 Z" fill="none" stroke="green" stroke-width="1"/>
	 <path d="M62.499959186862945 116.66652892140033 L62.50004081364302 94.44430669932801 L137.50004081313705 94.44458218971076 L137.499959186357 116.66680441178308 Z" fill="none" stroke="green" stroke-width="1"/>
	 <path d="M62.499959186862945 161.11097336584479 L62.50004081364302 138.88875114377248 L137.50004081313705 138.88902663415521 L137.499959186357 161.11124885622752 Z" fill="none" stroke="green" stroke-width="1"/>
	 <path d="M62.499959186862945 205.55541781028919 L62.50004081364302 183.33319558821688 L137.50004081313705 183.33347107859962 L137.499959186357 205.55569330067192 Z" fill="none" stroke="green" stroke-width="1"/>
	 <path d="M62.49995918686292 249.99986225473367 L62.50004081364299 227.77764003266137 L137.50004081313705 227.7779155230441 L137.499959186357 250.0001377451164 Z" fill="none" stroke="green" stroke-width="1"/>
	 <path d="M562.499959186863 72.22208447695586 L562.500040813643 49.9998622548836 L637.500040813137 50.00013774526636 L637.4999591863569 72.2223599673386 Z" fill="none" stroke="green" stroke-width="1"/>
	 <path d="M562.499959186863 116.6665289214003 L562.5000408136431 94.44430669932804 L637.500040813137 94.44458218971079 L637.4999591863569 116.66680441178305 Z" fill="none" stroke="green" stroke-width="1"/>
	 <path d="M562.499959186863 161.11097336584476 L562.5000408136431 138.8887511437725 L637.500040813137 138.88902663415524 L637.4999591863569 161.1112488562275 Z" fill="none" stroke="green" stroke-width="1"/>
	 <path d="M562.499959186863 205.55541781028916 L562.5000408136431 183.3331955882169 L637.500040813137 183.33347107859964 L637.4999591863569 205.5556933006719 Z" fill="none" stroke="green" stroke-width="1"/>
	 <path d="M562.499959186863 249.99986225473364 L562.500040813643 227.7776400326614 L637.500040813137 227.77791552304413 L637.4999591863569 250.00013774511638 Z" fill="none" stroke="green" stroke-width="1"/>

</svg>
