<svg height="1000" width="1000" version="1.1" xmlns="http://www.w3.org/2000/svg" viewBox="-100 -100 1000 1000">
	 <path d="M0.0 0.0 L0.0 50.0 L-25.0 50.0 L-25.0 78.57142857142857 L0.0 78.57142857142857 L0.0 107.14285714285714 L-25.0 107.14285714285714 L-25.0 135.71428571428572 L0.0 135.71428571428572 L0.0 164.2857142857143 L-25.0 164.2857142857143 L-25.0 192.8571428571429 L0.0 192.8571428571429 L0.0 221.42857142857147 L-25.0 221.42857142857147 L-25.0 250.00000000000006 L0.0 250.00000000000006 L0.0 250.0 L0.0 300.0 L700.0 300.0 L700.0 250.0 L725.0 250.0 L725.0 221.42857142857142 L700.0 221.42857142857142 L700.0 192.85714285714283 L725.0 192.85714285714283 L725.0 164.28571428571425 L700.0 164.28571428571425 L700.0 135.71428571428567 L725.0 135.71428571428567 L725.0 107.1428571428571 L700.0 107.1428571428571 L700.0 78.57142857142853 L725.0 78.57142857142853 L725.0 49.99999999999996 L700.0 49.99999999999996 L700.0 50.0 L700.0 0.0 Z" fill="none" stroke="blue" stroke-width="1"/>

</svg>
