<svg height="1000" width="1000" version="1.1" xmlns="http://www.w3.org/2000/svg" viewBox="-100 -100 1000 1000">
	 <path d="M0.0 0.0 L0.0 50.0 L-20.0 50.0 L-20.0 116.66666666666667 L0.0 116.66666666666667 L0.0 183.33333333333334 L-20.0 183.33333333333334 L-20.0 250.0 L0.0 250.0 L0.0 250.0 L0.0 300.0 L700.0 300.0 L700.0 250.0 L740.0 250.0 L740.0 227.77777777777777 L700.0 227.77777777777777 L700.0 205.55555555555554 L740.0 205.55555555555554 L740.0 183.33333333333331 L700.0 183.33333333333331 L700.0 161.1111111111111 L740.0 161.1111111111111 L740.0 138.88888888888886 L700.0 138.88888888888886 L700.0 116.66666666666663 L740.0 116.66666666666663 L740.0 94.4444444444444 L700.0 94.4444444444444 L700.0 72.22222222222217 L740.0 72.22222222222217 L740.0 49.99999999999995 L700.0 49.99999999999995 L700.0 50.0 L700.0 0.0 Z" fill="none" stroke="blue" stroke-width="1"/>

</svg>
