<svg height="1000" width="1000" version="1.1" xmlns="http://www.w3.org/2000/svg" viewBox="-100 -100 1000 1000">
	 <path d="M0.0 0.0 L0.0 300.0 L700.0 300.0 L700.0 0.0 Z" fill="none" stroke="blue" stroke-width="1"/>
	 <path d="M-25.000122440001455 116.66657483631423 L-24.99987755966123 49.9999081700973 L25.000122440001455 50.00009183035246 L24.99987755966123 116.66675849656939 Z" fill="none" stroke="green" stroke-width="1"/>
	 <path d="M-25.000122440001455 249.99990816964757 L-24.99987755966123 183.33324150343066 L25.000122440001455 183.3334251636858 L24.99987755966123 250.00009182990271 Z" fill="none" stroke="green" stroke-width="1"/>
	 <path d="M684.9999666073277 68.18176308368034 L685.000033392875 49.99994490198475 L715.0000333926725 50.00005509813785 L714.9999666071252 68.18187327983344 Z" fill="none" stroke="green" stroke-width="1"/>
	 <path d="M684.9999666073276 104.5453994473167 L685.0000333928749 86.36358126562111 L715.0000333926724 86.36369146177421 L714.9999666071251 104.5455096434698 Z" fill="none" stroke="green" stroke-width="1"/>
	 <path d="M684.9999666073276 140.90903581095304 L685.0000333928749 122.72721762925747 L715.0000333926724 122.72732782541057 L714.9999666071251 140.90914600710616 Z" fill="none" stroke="green" stroke-width="1"/>
	 <path d="M684.9999666073276 177.27267217458942 L685.0000333928749 159.09085399289384 L715.0000333926724 159.09096418904696 L714.9999666071251 177.27278237074253 Z" fill="none" stroke="green" stroke-width="1"/>
	 <path d="M684.9999666073276 213.6363085382258 L685.0000333928749 195.45449035653021 L715.0000333926724 195.45460055268333 L714.9999666071251 213.6364187343789 Z" fill="none" stroke="green" stroke-width="1"/>
	 <path d="M684.9999666073276 249.99994490186216 L685.0000333928749 231.8181267201666 L715.0000333926724 231.8182369163197 L714.9999666071251 250.00005509801528 Z" fill="none" stroke="green" stroke-width="1"/>

</svg>
